<?xml version="1.0" encoding="UTF-8"?>
<svg width="525px" height="105px" viewBox="0 0 1050 210" version="1.1" xmlns="http://www.w3.org/2000/svg" xmlns:xlink="http://www.w3.org/1999/xlink">
    <!-- Generator: Sketch 60.1 (88133) - https://sketch.com -->
    <title>layer2</title>
    <desc>Created with Sketch.</desc>
    <g id="Page-1" stroke="none" stroke-width="1" fill="none" fill-rule="evenodd">
        <g id="layer2" transform="translate(0.000000, -276.000000)">
            <polygon id="path2995" fill="#663300" points="2.64449343e-14 276 211 276 211 486 0 486"></polygon>
            <path d="M14.4353982,283 L196.564602,283 C200.65394,283 204,286.34606 204,290.435389 L204,472.564611 C204,476.65406 200.65394,480 196.564602,480 L14.4353982,480 C10.3460603,480 7,476.65406 7,472.564611 L7,290.435389 C7,286.34606 10.3460603,283 14.4353982,283" id="path2997" fill="#CC9933"></path>
            <polygon id="path2999" stroke="#663300" stroke-width="7.0866251" points="31 308 178 308 178 455 31 455"></polygon>
            <polygon id="path3001" stroke="#663300" stroke-width="7.0866251" points="60 308 150 308 150 455 60 455"></polygon>
            <polygon id="path3003" stroke="#663300" stroke-width="7.0866251" points="90 308 120 308 120 455 90 455"></polygon>
            <polygon id="path3005" fill-opacity="0.5" fill="#FFFFCC" points="12 286 200 286 200 292 12 292"></polygon>
            <polygon id="path3007" fill-opacity="0.5" fill="#663300" points="7 474 206 474 206 483 7 483"></polygon>
            <polygon id="path3009" fill-opacity="0.5" fill="#FFFFCC" points="29 461 182 461 182 467 29 467"></polygon>
            <g id="g3041-Clipped" transform="translate(15.000000, 14.000000)" fill="#FFFFCC">
                <g id="g3041" transform="translate(59.895076, 394.326517) scale(-1, 1) rotate(-180.000000) translate(-59.895076, -394.326517) translate(47.895076, 351.326517)">
                    <polygon id="path3043" points="0.882788369 85.5009799 23.0126585 85.5009799 23.0126585 0.589285941 0.882788369 0.589285941"></polygon>
                </g>
            </g>
            <g id="g3075-Clipped" transform="translate(39.000000, 0.000000)" fill="#FFFFCC">
                <g id="g3075" transform="translate(66.736721, 382.326353) scale(-1, 1) rotate(-180.000000) translate(-66.736721, -382.326353) translate(55.236721, 313.326353)">
                    <polygon id="path3077" points="0.197794538 137.412168 22.4617264 137.412168 22.4617264 0.589429303 0.197794538 0.589429303"></polygon>
                </g>
            </g>
            <g id="g3109-Clipped" transform="translate(87.000000, 2.000000)" fill="#996633">
                <g id="g3109" transform="translate(77.818133, 383.326574) scale(-1, 1) rotate(-180.000000) translate(-77.818133, -383.326574) translate(66.318133, 317.326574)">
                    <polygon id="path3111" points="0.13634641 131.484606 22.1001762 131.484606 22.1001762 0.588888889 0.13634641 0.588888889"></polygon>
                </g>
            </g>
            <polygon id="path3113" fill-opacity="0.5" fill="#663300" points="33 309 42.6666127 309 168.333387 309 178 309 178 328.806752 178 453 168.333387 453 168.333387 328.806752 42.6666127 328.806752 42.6666127 453 33 453 33 328.806752 33 309"></polygon>
            <path d="M204.712573,455 L105.000056,455 L2,455 M2,308 L105.000056,308 L208,308" id="path3115" stroke="#663300" stroke-width="7.0866251"></path>
            <polygon id="path3117" fill-opacity="0.5" fill="#663300" points="209 310 179 310 179 320 209 320"></polygon>
            <path d="M16.2957619,289 C19.2201943,289 21.5915332,291.462781 21.5915332,294.5 C21.5915332,297.537209 19.2201943,300 16.2957619,300 C13.3713296,300 11,297.537219 11,294.5 C11,291.462791 13.3713296,289 16.2957619,289 Z M193.704238,289 C196.62867,289 199,291.462781 199,294.5 C199,297.537209 196.62867,300 193.704238,300 C190.779917,300 188.408467,297.537219 188.408467,294.5 C188.408467,291.462791 190.779917,289 193.704238,289" id="path3119" fill="#663300"></path>
            <path d="M16.2957619,465 C19.2201943,465 21.5915332,467.462783 21.5915332,470.5 C21.5915332,473.537217 19.2201943,476 16.2957619,476 C13.3713296,476 11,473.537217 11,470.5 C11,467.462783 13.3713296,465 16.2957619,465 Z M193.704238,465 C196.62867,465 199,467.462783 199,470.5 C199,473.537217 196.62867,476 193.704238,476 C190.779917,476 188.408467,473.537217 188.408467,470.5 C188.408467,467.462783 190.779917,465 193.704238,465" id="path3121" fill="#663300"></path>
            <polygon id="path3123" fill-opacity="0.5" fill="#663300" points="34 310 4 310 4 319 34 319"></polygon>
            <polygon id="path3125" fill="#663300" points="210 276 421 276 421 486 210 486 210 276"></polygon>
            <path d="M224.435398,283 L406.564602,283 C410.654051,283 414,286.34606 414,290.435389 L414,472.564611 C414,476.65406 410.654051,480 406.564602,480 L224.435398,480 C220.34606,480 217,476.65406 217,472.564611 L217,290.435389 C217,286.34606 220.34606,283 224.435398,283" id="path3127" fill="#C28529"></path>
            <polygon id="path3129" stroke="#663300" stroke-width="7.0866251" points="242 308 389 308 389 455 242 455 242 308"></polygon>
            <polygon id="path3131" stroke="#663300" stroke-width="7.0866251" points="270 308 360 308 360 455 270 455 270 308"></polygon>
            <polygon id="path3133" stroke="#663300" stroke-width="7.0866251" fill="#C28529" points="300 308 330 308 330 455 300 455"></polygon>
            <polygon id="path3135" fill-opacity="0.4" fill="#FFFFCC" points="222 286 410 286 410 292 222 292"></polygon>
            <polygon id="path3137" fill-opacity="0.5" fill="#663300" points="217 474 416 474 416 483 217 483"></polygon>
            <polygon id="path3139" fill-opacity="0.4" fill="#FFFFCC" points="239 461 392 461 392 467 239 467 239 461"></polygon>
            <g id="g3171-Clipped" transform="translate(254.000000, 2.000000)" fill="#996633">
                <g id="g3171" transform="translate(120.426031, 383.326574) scale(-1, 1) rotate(-180.000000) translate(-120.426031, -383.326574) translate(109.426031, 317.326574)">
                    <polygon id="path3173" points="0.00496341783 131.484606 21.8715892 131.484606 21.8715892 0.589236111 0.00496341783 0.589236111"></polygon>
                </g>
            </g>
            <polygon id="path3175" fill-opacity="0.5" fill="#663300" points="244 310 214 310 214 319 244 319"></polygon>
            <path d="M415.712454,455 L316,455 L213,455 M213,308 L316,308 L419,308" id="path3177" stroke="#663300" stroke-width="7.0866251"></path>
            <polygon id="path3179" fill-opacity="0.5" fill="#663300" points="242 331 315.500056 381.711481 389 331 389 366.799044 341.443054 399.610943 389 432.422963 389 454.454642 369.836612 455 315.500056 417.510525 261.163509 455 242 454.454642 242 432.422963 289.556946 399.610943 242 366.799044 242 331"></polygon>
            <polygon id="path3181" fill-opacity="0.5" fill="#663300" points="419 310 389 310 389 320 419 320"></polygon>
            <path d="M226.295759,289 C229.220189,289 231.591526,291.462781 231.591526,294.5 C231.591526,297.537209 229.220189,300 226.295759,300 C223.371328,300 221,297.537219 221,294.5 C221,291.462791 223.371328,289 226.295759,289 Z M403.704121,289 C406.628551,289 409,291.462781 409,294.5 C409,297.537209 406.628551,300 403.704121,300 C400.779802,300 398.408353,297.537219 398.408353,294.5 C398.408353,291.462791 400.779802,289 403.704121,289" id="path3183" fill="#663300"></path>
            <path d="M226.295759,465 C229.220189,465 231.591526,467.462783 231.591526,470.5 C231.591526,473.537217 229.220189,476 226.295759,476 C223.371328,476 221,473.537217 221,470.5 C221,467.462783 223.371328,465 226.295759,465 Z M403.704121,465 C406.628551,465 409,467.462783 409,470.5 C409,473.537217 406.628551,476 403.704121,476 C400.779802,476 398.408353,473.537217 398.408353,470.5 C398.408353,467.462783 400.779802,465 403.704121,465" id="path3185" fill="#663300"></path>
            <polygon id="path3187" stroke="#663300" stroke-width="7.0866251" fill="#C28529" points="242 311 389 412.99799 389 449 242 347.00201 242 311"></polygon>
            <polygon id="path3189" stroke="#663300" stroke-width="7.0866251" fill="#C28529" points="389 311 242 412.99799 242 449 389 347.00201 389 311"></polygon>
            <polygon id="path3191" fill-opacity="0.5" fill="#663300" points="342.217615 380 318 396.947648 323.782385 405 348 388.052361 342.217615 380"></polygon>
            <polygon id="path3193" fill-opacity="0.5" fill="#663300" points="244 309 253.666613 309 379.333387 309 389 309 389 328.806752 389 453 379.333387 453 379.333387 328.806752 253.666613 328.806752 253.666613 453 244 453 244 328.806752 244 309"></polygon>
            <g id="g3225-Clipped" transform="translate(136.000000, 14.000000)" fill="#FFDB96">
                <g id="g3225" transform="translate(92.053553, 394.326517) scale(-1, 1) rotate(-180.000000) translate(-92.053553, -394.326517) translate(80.553553, 351.326517)">
                    <polygon id="path3227" points="0.741232143 85.5009799 22.7296875 85.5009799 22.7296875 0.589285941 0.741232143 0.589285941"></polygon>
                </g>
            </g>
            <g id="g3259-Clipped" transform="translate(277.000000, 14.000000)" fill="#FFDB96">
                <g id="g3259" transform="translate(126.848768, 394.326517) scale(-1, 1) rotate(-180.000000) translate(-126.848768, -394.326517) translate(115.348768, 351.326517)">
                    <polygon id="path3261" points="0.26868392 85.5009799 22.2079999 85.5009799 22.2079999 0.589285941 0.26868392 0.589285941"></polygon>
                </g>
            </g>
            <g id="g3293-Clipped" transform="translate(149.000000, 8.000000)" fill="#FFDB96">
                <g id="g3293" transform="translate(147.540030, 383.326574) scale(-1, 1) rotate(-180.000000) translate(-147.540030, -383.326574) translate(104.540030, 342.326574)">
                    <polygon id="path3295" points="85.3993683 81.5979167 85.3993683 59.6721065 0.379450243 0.617013889 0.379450243 22.5428241"></polygon>
                </g>
            </g>
            <polygon id="path3297" fill="#663300" points="420 276 631 276 631 486 420 486"></polygon>
            <path d="M434.435505,283 L616.564495,283 C620.653942,283 624,286.34606 624,290.435389 L624,472.564611 C624,476.65406 620.653942,480 616.564495,480 L434.435505,480 C430.346058,480 427,476.65406 427,472.564611 L427,290.435389 C427,286.34606 430.346058,283 434.435505,283" id="path3299" fill="#C28529"></path>
            <polygon id="path3301" stroke="#663300" stroke-width="7.0866251" fill="#663300" points="424 322 626 322 626 439 424 439 424 322"></polygon>
            <polygon id="path3303" stroke="#663300" stroke-width="7.0866251" fill="#C28529" points="624 330 624 374 426 374 426 330 624 330"></polygon>
            <polygon id="path3305" stroke="#663300" stroke-width="7.0866251" fill="#C28529" points="624 387 624 431 426 431 426 387 624 387"></polygon>
            <polygon id="path3307" fill-opacity="0.25" fill="#FFFFCC" points="431 286 619 286 619 292 431 292"></polygon>
            <polygon id="path3309" fill-opacity="0.5" fill="#663300" points="426 474 625 474 625 483 426 483"></polygon>
            <polygon id="path3311" fill-opacity="0.25" fill="#FFFFCC" points="428 445 621 445 621 451 428 451"></polygon>
            <polygon id="path3313" fill-opacity="0.5" fill="#663300" points="622 366 428 366 428 376 622 376"></polygon>
            <path d="M436.295759,299 C439.220189,299 441.591526,301.462791 441.591526,304.5 C441.591526,307.537219 439.220189,310 436.295759,310 C433.371328,310 431,307.537219 431,304.5 C431,301.462791 433.371328,299 436.295759,299 Z M613.704232,299 C616.628551,299 619,301.462791 619,304.5 C619,307.537219 616.628551,310 613.704232,310 C610.779802,310 608.408474,307.537219 608.408474,304.5 C608.408474,301.462791 610.779802,299 613.704232,299" id="path3315" fill="#663300"></path>
            <path d="M436.295759,455 C439.220189,455 441.591526,457.462791 441.591526,460.5 C441.591526,463.537219 439.220189,466 436.295759,466 C433.371328,466 431,463.537219 431,460.5 C431,457.462791 433.371328,455 436.295759,455 Z M613.704232,455 C616.628551,455 619,457.462791 619,460.5 C619,463.537219 616.628551,466 613.704232,466 C610.779802,466 608.408474,463.537219 608.408474,460.5 C608.408474,457.462791 610.779802,455 613.704232,455" id="path3317" fill="#663300"></path>
            <g id="g3349-Clipped" transform="translate(266.000000, 58.000000)" fill="#FFDB96">
                <g id="g3349" transform="translate(250.212310, 348.594633) scale(-1, 1) rotate(-180.000000) translate(-250.212310, -348.594633) translate(163.212310, 333.094633)">
                    <polygon id="path3351" points="173.334271 30.2616497 173.334271 0.659941307 0.312071233 0.659941307 0.312071233 30.2616497"></polygon>
                </g>
            </g>
            <g id="g3383-Clipped" transform="translate(169.000000, 105.000000)" fill="#FFDB96">
                <g id="g3383" transform="translate(347.904237, 244.558370) scale(-1, 1) rotate(-180.000000) translate(-347.904237, -244.558370) translate(260.904237, 229.558370)">
                    <polygon id="path3385" points="173.639783 29.8093238 173.639783 0.243807829 0.312621277 0.243807829 0.312621277 29.8093238"></polygon>
                </g>
            </g>
            <polygon id="path3387" fill-opacity="0.5" fill="#663300" points="622 422 428 422 428 432 622 432"></polygon>
            <polygon id="path3389" fill-opacity="0.5" fill="#663300" points="624 314 426 314 426 324 624 324"></polygon>
            <path d="M436.295759,404 C439.220189,404 441.591526,406.462781 441.591526,409.5 C441.591526,412.537209 439.220189,415 436.295759,415 C433.371328,415 431,412.537219 431,409.5 C431,406.462781 433.371328,404 436.295759,404 Z M613.704232,404 C616.628551,404 619,406.462781 619,409.5 C619,412.537209 616.628551,415 613.704232,415 C610.779802,415 608.408474,412.537219 608.408474,409.5 C608.408474,406.462781 610.779802,404 613.704232,404" id="path3391" fill="#663300"></path>
            <path d="M436.295759,348 C439.220189,348 441.591526,350.462781 441.591526,353.5 C441.591526,356.537209 439.220189,359 436.295759,359 C433.371328,359 431,356.537219 431,353.5 C431,350.462781 433.371328,348 436.295759,348 Z M613.704232,348 C616.628551,348 619,350.462781 619,353.5 C619,356.537209 616.628551,359 613.704232,359 C610.779802,359 608.408474,356.537219 608.408474,353.5 C608.408474,350.462781 610.779802,348 613.704232,348" id="path3393" fill="#663300"></path>
            <polygon id="path3395" fill="#663300" points="629 276 840 276 840 486 629 486"></polygon>
            <path d="M643.435504,283 L825.564449,283 C829.653942,283 833,286.34606 833,290.435389 L833,472.564611 C833,476.65406 829.653942,480 825.564449,480 L643.435504,480 C639.346058,480 636,476.65406 636,472.564611 L636,290.435389 C636,286.34606 639.346058,283 643.435504,283" id="path3397" fill="#B57829"></path>
            <polygon id="path3399" stroke="#663300" stroke-width="7.0866251" fill="#663300" points="634 325.271028 836 322 836 435.728861 634 439"></polygon>
            <polygon id="path3401" stroke="#663300" stroke-width="7.0866251" fill="#B57829" points="834 321 834 378 636 374.726332 636 324.273668 834 321"></polygon>
            <polygon id="path3403" stroke="#663300" stroke-width="7.0866251" fill="#B57829" points="834 380.297087 834 437.702904 636 441 636 377 834 380.297087"></polygon>
            <polygon id="path3405" fill-opacity="0.25" fill="#FFFFCC" points="642 286 830 286 830 292 642 292 642 286"></polygon>
            <polygon id="path3407" fill-opacity="0.5" fill="#663300" points="636 474 835 474 835 483 636 483 636 474"></polygon>
            <polygon id="path3409" fill-opacity="0.25" fill="#FFFFCC" points="639 443.382901 832 440 832 446.617099 639 450"></polygon>
            <polygon id="path3411" fill-opacity="0.5" fill="#663300" points="832 366 638 366 638 376 832 376"></polygon>
            <path d="M646.295757,299 C649.220187,299 651.591524,301.462791 651.591524,304.5 C651.591524,307.537219 649.220187,310 646.295757,310 C643.371448,310 641,307.537219 641,304.5 C641,301.462791 643.371448,299 646.295757,299 Z M823.704215,299 C826.628645,299 829,301.462791 829,304.5 C829,307.537219 826.628645,310 823.704215,310 C820.779785,310 818.408429,307.537219 818.408429,304.5 C818.408429,301.462791 820.779785,299 823.704215,299" id="path3413" fill="#663300"></path>
            <path d="M646.295757,455 C649.220187,455 651.591524,457.462791 651.591524,460.5 C651.591524,463.537219 649.220187,466 646.295757,466 C643.371448,466 641,463.537219 641,460.5 C641,457.462791 643.371448,455 646.295757,455 Z M823.704215,455 C826.628645,455 829,457.462791 829,460.5 C829,463.537219 826.628645,466 823.704215,466 C820.779785,466 818.408429,463.537219 818.408429,460.5 C818.408429,457.462791 820.779785,455 823.704215,455" id="path3415" fill="#663300"></path>
            <g id="g3447-Clipped" transform="translate(432.000000, 56.000000)" fill="#FFDB96">
                <g id="g3447" transform="translate(293.745491, 347.789748) scale(-1, 1) rotate(-180.000000) translate(-293.745491, -347.789748) translate(206.745491, 325.789748)">
                    <polygon id="path3449" points="173.637256 36.9623063 173.637256 4.12769688 0.412795687 0.850190625 0.412795687 9.73065313 117.911924 14.9030219 0.412795687 19.2127125 0.412795687 43.5174344 173.637256 36.9623063"></polygon>
                </g>
            </g>
            <g id="g3481-Clipped" transform="translate(334.000000, 104.000000)" fill="#FFDB96">
                <g id="g3481" transform="translate(391.507030, 240.558244) scale(-1, 1) rotate(-180.000000) translate(-391.507030, -240.558244) translate(304.507030, 220.558244)">
                    <polygon id="path3483" points="173.874221 39.656266 173.874221 21.7318364 6.03641125 17.4193205 173.874221 10.5193644 173.874221 0.24387766 0.413359034 0.24387766 0.413359034 36.3767593 173.874221 39.656266"></polygon>
                </g>
            </g>
            <polygon id="path3485" fill-opacity="0.5" fill="#663300" points="832 429 638 429 638 439 832 439"></polygon>
            <polygon id="path3487" fill-opacity="0.5" fill="#663300" points="834 314 636 317.214925 636 327 834 323.785075"></polygon>
            <path d="M646.295757,404 C649.220187,404 651.591524,406.462781 651.591524,409.5 C651.591524,412.537209 649.220187,415 646.295757,415 C643.371448,415 641,412.537219 641,409.5 C641,406.462781 643.371448,404 646.295757,404 Z M823.704215,404 C826.628645,404 829,406.462781 829,409.5 C829,412.537209 826.628645,415 823.704215,415 C820.779785,415 818.408429,412.537219 818.408429,409.5 C818.408429,406.462781 820.779785,404 823.704215,404" id="path3489" fill="#663300"></path>
            <path d="M646.295757,348 C649.220187,348 651.591524,350.462781 651.591524,353.5 C651.591524,356.537209 649.220187,359 646.295757,359 C643.371448,359 641,356.537219 641,353.5 C641,350.462781 643.371448,348 646.295757,348 Z M823.704215,348 C826.628645,348 829,350.462781 829,353.5 C829,356.537209 826.628645,359 823.704215,359 C820.779785,359 818.408429,356.537219 818.408429,353.5 C818.408429,350.462781 820.779785,348 823.704215,348" id="path3491" fill="#663300"></path>
            <polygon id="path3493" stroke="#663300" stroke-width="3.54325008" fill="#E6E6BA" points="723 411 810 411 810 467 723 467 723 411"></polygon>
            <line x1="732" y1="453.5" x2="802" y2="453.5" id="path3495" stroke="#663300" stroke-width="3.54325008"></line>
            <line x1="732" y1="443.5" x2="802" y2="443.5" id="path3497" stroke="#663300" stroke-width="3.54325008"></line>
            <line x1="732" y1="427.5" x2="802" y2="427.5" id="path3499" stroke="#663300" stroke-width="3.54325008"></line>
            <polygon id="path3501" fill="#663300" points="839 276 1050 276 1050 486 839 486"></polygon>
            <path d="M853.435552,283 L1035.56463,283 C1039.65394,283 1043,286.34606 1043,290.435389 L1043,472.564611 C1043,476.65406 1039.65394,480 1035.56463,480 L853.435552,480 C849.346058,480 846,476.65406 846,472.564611 L846,290.435389 C846,286.34606 849.346058,283 853.435552,283" id="path3503" fill="#AD661F"></path>
            <polygon id="path3505" stroke="#663300" stroke-width="7.0866251" points="872 308 1019 308 1019 455 872 455"></polygon>
            <polygon id="path3507" stroke="#663300" stroke-width="7.0866251" fill="#AD661F" points="1019 336 1019 426 872 426 872 336"></polygon>
            <polygon id="path3509" stroke="#663300" stroke-width="7.0866251" fill="#AD661F" points="1019 366 1019 396 872 396 872 366"></polygon>
            <polygon id="path3511" fill-opacity="0.25" fill="#FFFFCC" points="852 286 1040 286 1040 292 852 292"></polygon>
            <polygon id="path3513" fill-opacity="0.5" fill="#663300" points="846 474 1045 474 1045 483 846 483"></polygon>
            <polygon id="path3515" fill-opacity="0.25" fill="#FFFFCC" points="868 461 1021 461 1021 467 868 467"></polygon>
            <polygon id="path3517" fill-opacity="0.5" fill="#663300" points="874 310 844 310 844 319 874 319"></polygon>
            <path d="M1044.71253,455 L945,455 L842,455 M842,308 L945,308 L1048,308" id="path3519" stroke="#663300" stroke-width="7.0866251"></path>
            <path d="M1019,331 C878.363914,428.032318 953.4254,376.243399 872,432.422963 L872,454.454642 L891.163453,455 C1013.62026,370.511027 938.067755,422.638233 1019,366.799044 L1019,331 L1019,331 Z" id="path3521" fill-opacity="0.5" fill="#663300"></path>
            <polygon id="path3523" fill-opacity="0.5" fill="#663300" points="1049 310 1019 310 1019 320 1049 320"></polygon>
            <path d="M856.295695,289 C859.220126,289 861.591575,291.462781 861.591575,294.5 C861.591575,297.537209 859.220126,300 856.295695,300 C853.37145,300 851,297.537219 851,294.5 C851,291.462791 853.37145,289 856.295695,289 Z M1033.70421,289 C1036.62864,289 1039,291.462781 1039,294.5 C1039,297.537209 1036.62864,300 1033.70421,300 C1030.77978,300 1028.40852,297.537219 1028.40852,294.5 C1028.40852,291.462791 1030.77978,289 1033.70421,289" id="path3525" fill="#663300"></path>
            <path d="M856.295695,465 C859.220126,465 861.591575,467.462783 861.591575,470.5 C861.591575,473.537217 859.220126,476 856.295695,476 C853.37145,476 851,473.537217 851,470.5 C851,467.462783 853.37145,465 856.295695,465 Z M1033.70421,465 C1036.62864,465 1039,467.462783 1039,470.5 C1039,473.537217 1036.62864,476 1033.70421,476 C1030.77978,476 1028.40852,473.537217 1028.40852,470.5 C1028.40852,467.462783 1030.77978,465 1033.70421,465" id="path3527" fill="#663300"></path>
            <polygon id="path3529" stroke="#663300" stroke-width="7.0866251" fill="#AD661F" points="1019 311 872 412.99799 872 449 1019 347.00201 1019 311"></polygon>
            <polygon id="path3531" fill-opacity="0.5" fill="#663300" points="874 309 883.666698 309 1009.33321 309 1019 309 1019 328.806752 1019 453 1009.33321 453 1009.33321 328.806752 883.666698 328.806752 883.666698 453 874 453 874 328.806752 874 309"></polygon>
            <g id="g3563-Clipped" transform="translate(636.000000, 14.000000)" fill="#FFDB96">
                <g id="g3563" transform="translate(222.261702, 394.326517) scale(-1, 1) rotate(-180.000000) translate(-222.261702, -394.326517) translate(210.761702, 351.326517)">
                    <polygon id="path3565" points="0.114201285 85.5009799 22.1002697 85.5009799 22.1002697 0.589285941 0.114201285 0.589285941"></polygon>
                </g>
            </g>
            <g id="g3597-Clipped" transform="translate(775.000000, 14.000000)" fill="#FFDB96">
                <g id="g3597" transform="translate(257.078430, 394.326517) scale(-1, 1) rotate(-180.000000) translate(-257.078430, -394.326517) translate(245.578430, 351.326517)">
                    <polygon id="path3599" points="0.570233621 85.5009799 22.5353591 85.5009799 22.5353591 0.589285941 0.570233621 0.589285941"></polygon>
                </g>
            </g>
            <g id="g3631-Clipped" transform="translate(650.000000, 8.000000)" fill="#FFDB96">
                <g id="g3631" transform="translate(276.773791, 383.326574) scale(-1, 1) rotate(-180.000000) translate(-276.773791, -383.326574) translate(233.773791, 342.326574)">
                    <polygon id="path3633" points="85.7457055 81.5979167 85.7457055 59.6721065 0.680912605 0.617013889 0.680912605 22.5428241"></polygon>
                </g>
            </g>
        </g>
    </g>
</svg>
