<?xml version="1.0"?>
<svg width="1525" height="507" xmlns="http://www.w3.org/2000/svg" xmlns:svg="http://www.w3.org/2000/svg" xmlns:xlink="http://www.w3.org/1999/xlink">
 <g class="layer">
  <title>Layer 1</title>
  <path d="m413.6,172.8c0,140.8 -76,290.4 -160,290.4s-160,-148.8 -160,-290.4s76.8,-172.8 160,-172.8s160,32 160,172.8z" fill="#0B7F9E" id="svg_1"/>
  <path d="m254.6,0c83.2,0 160,32 160,172.8s-76,290.4 -160,290.4s-160,-148.8 -160,-290.4" fill="#0b7f9e" id="svg_2"/>
  <ellipse cx="253.6" cy="495.2" fill="#91C6C2" id="svg_20" rx="104" ry="12"/>
  <path d="m412,173.6l0.8,-1.6c0,0.8 0.8,0.8 0.8,1.6c0,93.6 -32,184.8 -80,240l0,-212.8l29.6,-27.2l48.8,0z" fill="#0B7F9E" id="svg_29"/>
  <path d="m411.192558,168l0,1.6c0,0.8 -9.699859,-92.4 2.399757,3.2c12.099617,95.6 -94.98199,408.4 -239.975718,244.8l-2.016603,-255" fill="#02405B" id="svg_30"/>
  <path d="m253.6,0c84.240004,0 162.000008,32 162.000008,172.8s-76.950004,290.4 -162.000008,290.4" fill="#00233F" id="svg_3"/>
  <g id="svg_32"/>
  <g id="svg_44"/>
  <ellipse cx="426.080931" cy="376.93032" fill="#0B7F9E" id="svg_48" rx="40.001" ry="13.6" transform="rotate(-9.2077 255.473 208.886) matrix(-0.135091 0.9969 -1.70904 -0.0788 957.222 -186.172)"/>
  <ellipse cx="430.255621" cy="375.925344" fill="#0B6382" id="svg_49" rx="24" ry="5.6" transform="rotate(-21.0554 256.342 212.285) matrix(-0.212607 0.964874 -2.68969 -0.0762685 1358.94 -174.186)"/>
  <g id="svg_50">
   <circle cx="151.495298" cy="207.787029" fill="#16D8D8" id="svg_51" r="3.2" transform="rotate(-14.9027 151.495 207.787)"/>
   <circle cx="138.097126" cy="207.213455" fill="#16D8D8" id="svg_52" r="3.2" transform="rotate(-14.9027 138.097 207.213)"/>
   <circle cx="124.904698" cy="207.412971" fill="#16D8D8" id="svg_53" r="3.2" transform="rotate(-14.9027 124.905 207.413)"/>
  </g>
  <g id="svg_55"/>
  <g id="svg_56"/>
  <g id="svg_57"/>
  <g id="svg_58"/>
  <g id="svg_59"/>
  <g id="svg_60"/>
  <g id="svg_61"/>
  <g id="svg_62"/>
  <g id="svg_63"/>
  <g id="svg_64"/>
  <g id="svg_65"/>
  <g id="svg_66"/>
  <g id="svg_67"/>
  <g id="svg_68"/>
  <g id="svg_69"/>
  <circle cx="148.799994" cy="81.5" fill="#00FFF2" id="svg_73" r="14.4"/>
  <path d="m160.199982,144.500002l33.6,-40l0,0l61.6,0c0.8,8 1.6,16 1.6,16l-56.8,0l-38.4,40l0,0l0,0l-56,0l0,-16l54.4,0z" fill="#00FFF2" id="svg_84"/>
  <polyline fill="#16D8D8" id="svg_83" points="257.79998779296875,120.5 200.199951171875,120.5 161.79998779296875,160.5 161.79998779296875,160.5 161.79998779296875,160.5 105.79998779296875,160.5 105.79998779296875,155.70001220703125 161,150.89999389648438 193.79998779296875,112.5 193.79998779296875,112.5 "/>
  <circle cx="97.799982" cy="150.100002" fill="#00FFF2" id="svg_82" r="16"/>
  <path d="m113.799982,150.100002c0,8.8 -7.2,16 -16,16s-16,-7.2 -16,-16" fill="#16D8D8" id="svg_81"/>
  <g id="svg_89">
   <circle cx="215.8" cy="316.8" fill="#00233f" id="svg_43" r="40.799999"/>
   <path d="m215.8,276.8c-22.4,0 -40.8,18.4 -40.8,40.8s18.4,40.8 40.8,40.8" fill="#0b6382" id="svg_45"/>
   <circle cx="231.8" cy="259.2" fill="#00233F" id="svg_46" r="9.6"/>
   <polyline fill="#16D8D8" id="svg_47" points="265.6000061035156,246.60000610351562 265.6000061035156,206.60000610351562 241.60000610351562,206.60000610351562 241.60000610351562,174.60000610351562 225.60000610351562,174.60000610351562 " transform="rotate(29.132 245.6 210.6)"/>
   <path d="m202.600002,325.6c0,-2.4 -1.08,-4 -2.7,-4l-21.6,0c-1.62,0 -2.7,1.6 -2.7,4l0,0c0,2.4 1.08,4 2.7,4l21.6,0c1.62,0 2.7,-1.6 2.7,-4l0,0z" fill="#00FFF2" id="svg_54"/>
  </g>
  <g id="svg_105">
   <path d="m179.399994,81c0,13.6 -11.2,35.2 -25.6,35.2c-13.6,0 -25.6,-20.8 -25.6,-35.2c0,-13.6 11.2,-25.6 25.6,-25.6c13.6,0 25.6,11.2 25.6,25.6z" fill="#022728" id="svg_104"/>
   <circle cx="153.799994" cy="81" fill="#00FFF2" id="svg_103" r="25.6"/>
   <path d="m135.399994,62.6c9.6,-9.6 25.6,-9.6 36,0c9.6,9.6 9.6,25.6 0,36" fill="#16D8D8" id="svg_102"/>
   <circle cx="153.799994" cy="81" fill="#00FFF2" id="svg_101" r="14.4"/>
   <path d="m153.799994,95.4c-8,0 -14.4,-6.4 -14.4,-14.4s6.4,-14.4 14.4,-14.4" fill="#16D8D8" id="svg_100"/>
   <circle cx="142.599994" cy="69.8" fill="#EBFFFD" id="svg_99" r="8.8"/>
   <circle cx="168.199994" cy="93.8" fill="#EBFFFD" id="svg_98" r="4"/>
  </g>
  <use id="svg_108" transform="matrix(1.01754 0 0 0.991946 -1026.66 1.79702e-12)" x="983.121608" xlink:href="#svg_107" y="3.000003"/>
  <use id="svg_265" transform="matrix(1.01754 0 0 0.99391 -2053.04 -1.00389)" x="2992.034386" xlink:href="#svg_264" y="3"/>
  <g id="svg_266"/>
 </g>
 <defs>
  <symbol id="svg_107" viewBox="0 0 507.2 507.2" x="0px" xmlns="http://www.w3.org/2000/svg" xmlns:xlink="http://www.w3.org/1999/xlink" y="0px">
   <path d="m413.6,172.8c0,140.8 -76,290.4 -160,290.4s-160,-148.8 -160,-290.4s76.8,-172.8 160,-172.8s160,32 160,172.8z" fill="#0B7F9E"/>
   <path d="m253.6,0c83.2,0 160,32 160,172.8s-76,290.4 -160,290.4s-160,-148.8 -160,-290.4" fill="#0B6382"/>
   <path d="m253.6,0c83.2,0 160,32 160,172.8s-76,290.4 -160,290.4" fill="#00233F"/>
   <path d="m216,80c0,13.6 -11.2,35.2 -25.6,35.2c-13.6,0 -25.6,-20.8 -25.6,-35.2c0,-13.6 11.2,-25.6 25.6,-25.6c13.6,0 25.6,11.2 25.6,25.6z" fill="#022728"/>
   <circle cx="190.4" cy="80" fill="#00FFF2" r="25.6"/>
   <path d="m172,61.6c9.6,-9.6 25.6,-9.6 36,0c9.6,9.6 9.6,25.6 0,36" fill="#16D8D8"/>
   <circle cx="190.4" cy="80" fill="#00FFF2" r="14.4"/>
   <path d="m190.4,94.4c-8,0 -14.4,-6.4 -14.4,-14.4s6.4,-14.4 14.4,-14.4" fill="#16D8D8"/>
   <g>
    <circle cx="179.2" cy="68.8" fill="#EBFFFD" r="8.8"/>
    <circle cx="204.8" cy="92.8" fill="#EBFFFD" r="4"/>
   </g>
   <path d="m342.4,80c0,13.6 -11.2,35.2 -25.6,35.2c-13.6,0 -25.6,-20.8 -25.6,-35.2c0,-13.6 11.2,-25.6 25.6,-25.6c14.4,0 25.6,11.2 25.6,25.6z" fill="#0B6382"/>
   <circle cx="316.8" cy="80" fill="#00FFF2" r="25.6"/>
   <path d="m299.2,61.6c9.6,-9.6 25.6,-9.6 36,0c9.6,9.6 9.6,25.6 0,36" fill="#16D8D8"/>
   <circle cx="316.8" cy="80" fill="#00FFF2" r="14.4"/>
   <path d="m316.8,94.4c-8,0 -14.4,-6.4 -14.4,-14.4s6.4,-14.4 14.4,-14.4" fill="#16D8D8"/>
   <g>
    <circle cx="305.6" cy="68.8" fill="#EBFFFD" r="8.8"/>
    <circle cx="331.2" cy="92.8" fill="#EBFFFD" r="4"/>
   </g>
   <ellipse cx="253.6" cy="495.2" fill="#91C6C2" rx="104" ry="12"/>
   <path d="m191.2,141.6l-33.6,-40l0,0l-61.6,0c-0.8,8 -1.6,16 -1.6,16l56.8,0l38.4,40l0,0l0,0l56,0l0,-16l-54.4,0z" fill="#00FFF2"/>
   <polyline fill="#16D8D8" points="93.6,117.6 151.2,117.6 189.6,157.6 189.6,157.6 189.6,157.6 245.6,157.6 245.6,152.8   190.4,148 157.6,109.6 157.6,109.6 "/>
   <path d="m316,141.6l33.6,-40l0,0l61.6,0c0.8,8 1.6,16 1.6,16l-56.8,0l-38.4,40l0,0l0,0l-56,0l0,-16l54.4,0z" fill="#00FFF2"/>
   <polyline fill="#16D8D8" points="413.6,117.6 356,117.6 317.6,157.6 317.6,157.6 317.6,157.6 261.6,157.6 261.6,152.8   316.8,148 349.6,109.6 349.6,109.6 "/>
   <circle cx="253.6" cy="147.2" fill="#00FFF2" r="16"/>
   <path d="m269.6,147.2c0,8.8 -7.2,16 -16,16s-16,-7.2 -16,-16" fill="#16D8D8"/>
   <path d="m94.4,173.6l-0.8,-1.6c0,0.8 -0.8,0.8 -0.8,1.6c0,93.6 32,188.8 80,243.2l0,-216l-29.6,-27.2l-48.8,0z" fill="#0B7F9E"/>
   <path d="m94.4,168l-0.8,1.6c0,0.8 -0.8,2.4 -0.8,3.2c0,93.6 32,190.4 80,244.8l0,-220" fill="#00233F"/>
   <path d="m412,173.6l0.8,-1.6c0,0.8 0.8,0.8 0.8,1.6c0,93.6 -32,184.8 -80,240l0,-212.8l29.6,-27.2l48.8,0z" fill="#0B7F9E"/>
   <path d="m412.8,168l0,1.6c0,0.8 0.8,2.4 0.8,3.2c0,93.6 -32,190.4 -80,244.8l0,-220" fill="#02405B"/>
   <circle cx="50.4" cy="304.8" fill="#0B6382" r="40.8"/>
   <g>
    <path d="m50.4,264.8c22.4,0 40.8,18.4 40.8,40.8s-18.4,40.8 -40.8,40.8" fill="#00233F"/>
    <circle cx="50.4" cy="247.2" fill="#00233F" r="9.6"/>
   </g>
   <polyline fill="#16D8D8" points="53.6,237.6 53.6,197.6 77.6,197.6 77.6,165.6 93.6,165.6 "/>
   <ellipse cx="97.595" cy="209.584" fill="#0B7F9E" rx="40.001" ry="13.6" transform="matrix(-0.0789 -0.9969 0.9969 -0.0789 -103.6292 323.4209)"/>
   <ellipse cx="92.778" cy="209.609" fill="#0B6382" rx="24" ry="5.6" transform="matrix(-0.0788 -0.9969 0.9969 -0.0788 -108.8679 318.6161)"/>
   <g>
    <circle cx="127.2" cy="211.2" fill="#16D8D8" r="3.2"/>
    <circle cx="140" cy="207.2" fill="#16D8D8" r="3.2"/>
    <circle cx="152.8" cy="204" fill="#16D8D8" r="3.2"/>
   </g>
   <path d="m69.6,313.6c0,2.4 -1.6,4 -4,4l-32,0c-2.4,0 -4,-1.6 -4,-4l0,0c0,-2.4 1.6,-4 4,-4l32,0c2.4,0 4,1.6 4,4l0,0z" fill="#00FFF2"/>
   <circle cx="456.8" cy="304.8" fill="#0B6382" r="40.8"/>
   <g>
    <path d="m456.8,264.8c-22.4,0 -40.8,18.4 -40.8,40.8s18.4,40.8 40.8,40.8" fill="#00233F"/>
    <circle cx="456.8" cy="247.2" fill="#00233F" r="9.6"/>
   </g>
   <polyline fill="#16D8D8" points="453.6,237.6 453.6,197.6 429.6,197.6 429.6,165.6 413.6,165.6 "/>
   <ellipse cx="410.015" cy="209.81" fill="#0B7F9E" rx="40.001" ry="13.6" transform="matrix(-0.0789 0.9969 -0.9969 -0.0789 651.5395 -182.3609)"/>
   <ellipse cx="414.238" cy="210.213" fill="#0B6382" rx="24" ry="5.6" transform="matrix(-0.0788 0.9969 -0.9969 -0.0788 656.439 -186.1716)"/>
   <g>
    <circle cx="380" cy="211.2" fill="#16D8D8" r="3.2"/>
    <circle cx="367.2" cy="207.2" fill="#16D8D8" r="3.2"/>
    <circle cx="354.4" cy="204" fill="#16D8D8" r="3.2"/>
   </g>
   <path d="m477.6,313.6c0,-2.4 -1.6,-4 -4,-4l-32,0c-2.4,0 -4,1.6 -4,4l0,0c0,2.4 1.6,4 4,4l32,0c2.4,0 4,-1.6 4,-4l0,0z" fill="#00FFF2"/>
   <g/>
   <g/>
   <g/>
   <g/>
   <g/>
   <g/>
   <g/>
   <g/>
   <g/>
   <g/>
   <g/>
   <g/>
   <g/>
   <g/>
   <g/>
  </symbol>
  <symbol height="507.2" id="svg_264" width="507.2" xmlns="http://www.w3.org/2000/svg" xmlns:svg="http://www.w3.org/2000/svg">
   <g class="layer">
    <title>Layer 1</title>
    <ellipse cx="97.595" cy="209.584" fill="#0B7F9E" id="svg_263" rx="40.001" ry="13.6" transform="matrix(-0.0789 -0.9969 0.9969 -0.0789 -103.629 323.421)"/>
    <ellipse cx="82.226904" cy="521.533458" fill="#0B7F9E" id="svg_262" rx="40.001" ry="13.6" transform="rotate(10.3674 409.8 200.3) matrix(-0.0789 -0.9969 0.9969 -0.0789 -103.629 323.421)"/>
    <path d="m413.6,172.8c0,140.8 -76,290.4 -160,290.4s-160,-148.8 -160,-290.4s76.8,-172.8 160,-172.8s160,32 160,172.8z" fill="#0B7F9E" id="svg_261"/>
    <g id="svg_259">
     <path d="m253.6,1c83.2,0 160,32 160,172.8s-76,290.4 -160,290.4s-160,-148.8 -160,-290.4" fill="#0B6382" id="svg_260"/>
    </g>
    <path d="m342.4,80c0,13.6 -11.2,35.2 -25.6,35.2c-13.6,0 -25.6,-20.8 -25.6,-35.2c0,-13.6 11.2,-25.6 25.6,-25.6c14.4,0 25.6,11.2 25.6,25.6z" fill="#0B6382" id="svg_258"/>
    <circle cx="316.8" cy="80" fill="#00FFF2" id="svg_257" r="25.6"/>
    <path d="m299.2,61.6c9.6,-9.6 25.6,-9.6 36,0c9.6,9.6 9.6,25.6 0,36" fill="#16D8D8" id="svg_256"/>
    <circle cx="316.8" cy="80" fill="#00FFF2" id="svg_255" r="14.4"/>
    <path d="m316.8,94.4c-8,0 -14.4,-6.4 -14.4,-14.4s6.4,-14.4 14.4,-14.4" fill="#16D8D8" id="svg_254"/>
    <g id="svg_251">
     <circle cx="305.6" cy="68.8" fill="#EBFFFD" id="svg_253" r="8.8"/>
     <circle cx="331.2" cy="92.8" fill="#EBFFFD" id="svg_252" r="4"/>
    </g>
    <ellipse cx="253.6" cy="495.2" fill="#91C6C2" id="svg_250" rx="104" ry="12"/>
    <polyline fill="#16D8D8" id="svg_249" points="413.6,117.6 356,117.6 317.6,157.6 317.6,157.6 317.6,157.6 261.6,157.6 261.6,152.8   316.8,148 349.6,109.6 349.6,109.6 "/>
    <path d="m412,173.6l0.8,-1.6c0,0.8 0.8,0.8 0.8,1.6c0,93.6 -32,184.8 -80,240l0,-212.8l29.6,-27.2l48.8,0z" fill="#0B7F9E" id="svg_248"/>
    <path d="m412.8,168l0,1.6c0,0.8 0.8,2.4 0.8,3.2c0,93.6 -32,190.4 -80,244.8l0,-220" fill="#02405B" id="svg_247"/>
    <circle cx="50.4" cy="304.8" fill="#0B6382" id="svg_246" r="40.8"/>
    <g id="svg_243">
     <path d="m50.4,264.8c22.4,0 40.8,18.4 40.8,40.8s-18.4,40.8 -40.8,40.8" fill="#00233F" id="svg_245"/>
     <circle cx="50.4" cy="247.2" fill="#00233F" id="svg_244" r="9.6"/>
    </g>
    <polyline fill="#16D8D8" id="svg_242" points="53.6,237.6 53.6,197.6 77.6,197.6 77.6,165.6 93.6,165.6 "/>
    <ellipse cx="92.778" cy="209.609" fill="#0B6382" id="svg_241" rx="24" ry="5.6" transform="matrix(-0.0788 -0.9969 0.9969 -0.0788 -108.868 318.616)"/>
    <circle cx="456.8" cy="304.8" fill="#0B6382" id="svg_240" r="40.8"/>
    <g id="svg_237">
     <path d="m456.8,264.8c-22.4,0 -40.8,18.4 -40.8,40.8s18.4,40.8 40.8,40.8" fill="#00233F" id="svg_239"/>
     <circle cx="456.8" cy="247.2" fill="#00233F" id="svg_238" r="9.6"/>
    </g>
    <polyline fill="#16D8D8" id="svg_236" points="453.6,237.6 453.6,197.6 429.6,197.6 429.6,165.6 413.6,165.6 "/>
    <ellipse cx="414.238" cy="210.213" fill="#0B6382" id="svg_235" rx="24" ry="5.6" transform="matrix(-0.0788 0.9969 -0.9969 -0.0788 656.439 -186.172)"/>
    <g id="svg_231">
     <circle cx="380" cy="211.2" fill="#16D8D8" id="svg_234" r="3.2"/>
     <circle cx="367.2" cy="207.2" fill="#16D8D8" id="svg_233" r="3.2"/>
     <circle cx="354.4" cy="204" fill="#16D8D8" id="svg_232" r="3.2"/>
    </g>
    <g id="svg_230"/>
    <g id="svg_229"/>
    <g id="svg_228"/>
    <g id="svg_227"/>
    <g id="svg_226"/>
    <g id="svg_225"/>
    <g id="svg_224"/>
    <g id="svg_223"/>
    <g id="svg_222"/>
    <g id="svg_221"/>
    <g id="svg_220"/>
    <g id="svg_219"/>
    <g id="svg_218"/>
    <g id="svg_217"/>
    <g id="svg_216"/>
    <path d="m254.6,0c83.2,0 160,32 160,172.8s-76,290.4 -160,290.4" fill="#00233F" id="svg_215"/>
    <g id="svg_214"/>
   </g>
  </symbol>
 </defs>
</svg>