<?xml version="1.0" encoding="iso-8859-1"?>
<!-- Generator: Adobe Illustrator 19.0.0, SVG Export Plug-In . SVG Version: 6.00 Build 0)  -->
<svg version="1.1" id="Layer_1" xmlns="http://www.w3.org/2000/svg" xmlns:xlink="http://www.w3.org/1999/xlink" x="0px" y="0px"
	 viewBox="0 0 512 512" style="enable-background:new 0 0 512 512;" xml:space="preserve">
<polygon style="fill:#FF8C29;" points="360.357,303.83 360.357,147.295 251.652,8.153 142.947,147.295 142.947,303.83 
	60.331,377.749 142.947,377.749 360.357,377.749 442.972,377.749 "/>
<polygon style="fill:#FD6A33;" points="142.947,147.295 142.947,303.83 60.331,377.749 142.947,377.749 251.652,377.749 
	251.652,303.83 251.652,147.295 251.652,8.153 "/>
<rect x="142.947" y="147.295" style="fill:#CDD4D5;" width="217.41" height="156.535"/>
<rect x="142.947" y="147.295" style="fill:#9BAAAB;" width="108.705" height="156.535"/>
<circle style="fill:#4ACFD9;" cx="251.652" cy="225.563" r="47.83"/>
<path style="fill:#FD6A33;" d="M216.866,438.624c0-19.211,15.574-34.786,34.786-34.786s34.786,15.574,34.786,34.786
	c0,19.211-34.786,65.223-34.786,65.223S216.866,457.836,216.866,438.624z"/>
<path style="fill:#FFD1A9;" d="M264.694,438.426c-0.107-7.102-5.917-12.847-13.042-12.847c-7.127,0-12.937,5.745-13.044,12.847
	c0.508,4.407,5.739,14.864,13.049,26.811C258.959,453.305,264.185,442.848,264.694,438.426z"/>
<path style="fill:#0295AA;" d="M203.822,225.563c0,26.416,21.414,47.83,47.83,47.83v-95.66
	C225.235,177.732,203.822,199.146,203.822,225.563z"/>
<path style="fill:#F0353D;" d="M216.866,438.624c0,19.211,34.786,65.223,34.786,65.223V403.839
	C232.44,403.839,216.866,419.413,216.866,438.624z"/>
<path style="fill:#FFBA7E;" d="M238.608,438.426c0.508,4.406,5.736,14.859,13.044,26.802V425.58
	C244.525,425.58,238.715,431.325,238.608,438.426z"/>
<polygon style="fill:#FF8C29;" points="142.947,303.83 60.331,377.749 142.947,377.749 "/>
<polygon style="fill:#F0353D;" points="360.357,303.83 442.972,377.749 360.357,377.749 "/>
<g>
	<path style="fill:#FFFFFF;" d="M234.259,238.064c-2.086,0-4.173-0.796-5.765-2.388c-3.184-3.184-3.184-8.346,0-11.529
		l21.741-21.741c3.184-3.184,8.346-3.184,11.529,0c3.184,3.184,3.184,8.346,0,11.529l-21.741,21.741
		C238.432,237.268,236.345,238.064,234.259,238.064z"/>
	<path style="fill:#FFFFFF;" d="M256,251.108c-2.086,0-4.173-0.796-5.765-2.388c-3.184-3.184-3.184-8.346,0-11.529l13.045-13.045
		c3.184-3.184,8.346-3.184,11.529,0c3.184,3.184,3.184,8.346,0,11.529l-13.045,13.045C260.173,250.313,258.086,251.108,256,251.108z
		"/>
	<path style="fill:#FFFFFF;" d="M334.268,272.849c-4.503,0-8.153-3.65-8.153-8.153v-78.268c0-4.503,3.65-8.153,8.153-8.153
		c4.503,0,8.153,3.65,8.153,8.153v78.268C342.42,269.199,338.77,272.849,334.268,272.849z"/>
</g>
<g>
	<path style="fill:#0295AA;" d="M486.454,416.34c-4.503,0-8.153-3.65-8.153-8.153V260.348c0-4.503,3.65-8.153,8.153-8.153
		s8.153,3.65,8.153,8.153v147.839C494.607,412.689,490.957,416.34,486.454,416.34z"/>
	<path style="fill:#0295AA;" d="M434.276,285.894c-4.503,0-8.153-3.65-8.153-8.153v-52.178c0-4.503,3.65-8.153,8.153-8.153
		s8.153,3.65,8.153,8.153v52.178C442.429,282.244,438.779,285.894,434.276,285.894z"/>
	<path style="fill:#0295AA;" d="M25.546,451.125c-4.503,0-8.153-3.65-8.153-8.153V269.045c0-4.503,3.65-8.153,8.153-8.153
		s8.153,3.65,8.153,8.153v173.928C33.699,447.475,30.048,451.125,25.546,451.125z"/>
	<path style="fill:#0295AA;" d="M77.724,277.197c-4.503,0-8.153-3.65-8.153-8.153v-78.268c0-4.503,3.65-8.153,8.153-8.153
		c4.503,0,8.153,3.65,8.153,8.153v78.268C85.877,273.547,82.227,277.197,77.724,277.197z"/>
</g>
<path d="M251.652,281.546c30.869,0,55.983-25.114,55.983-55.983s-25.114-55.983-55.983-55.983s-55.983,25.114-55.983,55.983
	S220.783,281.546,251.652,281.546z M251.652,185.885c21.878,0,39.677,17.799,39.677,39.677s-17.799,39.677-39.677,39.677
	s-39.677-17.799-39.677-39.677S229.774,185.885,251.652,185.885z"/>
<path d="M251.652,395.686c-23.676,0-42.938,19.263-42.938,42.938c0,20.888,30.35,62.092,36.435,70.14
	c1.541,2.038,3.948,3.236,6.504,3.236c2.556,0,4.962-1.198,6.504-3.236c6.084-8.047,36.435-49.252,36.435-70.14
	C294.59,414.948,275.328,395.686,251.652,395.686z M251.652,489.973c-12.646-18.06-26.633-41.706-26.633-51.349
	c0-14.685,11.948-26.633,26.633-26.633c14.685,0,26.633,11.948,26.633,26.633C278.285,448.267,264.297,471.913,251.652,489.973z"/>
<path d="M448.409,371.674l-79.899-71.489v-152.89c0-0.08-0.01-0.159-0.012-0.239c-0.004-0.159-0.01-0.316-0.024-0.475
	c-0.01-0.117-0.026-0.234-0.041-0.35c-0.02-0.148-0.04-0.295-0.067-0.441c-0.023-0.123-0.051-0.245-0.079-0.365
	c-0.032-0.136-0.065-0.271-0.104-0.405c-0.037-0.127-0.078-0.251-0.121-0.375c-0.043-0.125-0.087-0.25-0.137-0.374
	c-0.052-0.129-0.108-0.254-0.166-0.38c-0.052-0.114-0.105-0.227-0.164-0.34c-0.068-0.133-0.142-0.261-0.218-0.388
	c-0.06-0.101-0.118-0.202-0.183-0.301c-0.087-0.134-0.18-0.262-0.275-0.39c-0.047-0.064-0.087-0.132-0.137-0.195L258.075,3.133
	C256.532,1.157,254.162,0,251.652,0c-2.51,0-4.88,1.157-6.424,3.134L136.522,142.276c-0.049,0.063-0.089,0.13-0.137,0.195
	c-0.095,0.128-0.188,0.257-0.275,0.39c-0.064,0.099-0.123,0.2-0.183,0.301c-0.075,0.128-0.15,0.257-0.218,0.388
	c-0.058,0.112-0.111,0.226-0.163,0.34c-0.058,0.126-0.114,0.251-0.166,0.38c-0.05,0.124-0.093,0.249-0.137,0.374
	c-0.042,0.124-0.085,0.248-0.121,0.375c-0.039,0.135-0.072,0.27-0.104,0.405c-0.028,0.121-0.057,0.242-0.079,0.365
	c-0.027,0.147-0.048,0.294-0.067,0.441c-0.015,0.116-0.032,0.233-0.041,0.35c-0.014,0.159-0.02,0.316-0.024,0.475
	c-0.002,0.08-0.012,0.159-0.012,0.239v152.89l-79.899,71.489c-2.519,2.253-3.386,5.828-2.18,8.986
	c1.206,3.157,4.236,5.242,7.616,5.242h82.616h217.41h82.616c3.38,0,6.409-2.085,7.616-5.243S450.927,373.927,448.409,371.674z
	 M352.204,295.677H151.1V155.448h201.104V295.677z M151.1,311.983h201.104v57.614H151.1V311.983z M251.652,21.395l91.989,117.747
	H159.662L251.652,21.395z M134.794,322.065v47.531H81.67L134.794,322.065z M368.51,369.597v-47.531l53.124,47.531H368.51z"/>
<g>
</g>
<g>
</g>
<g>
</g>
<g>
</g>
<g>
</g>
<g>
</g>
<g>
</g>
<g>
</g>
<g>
</g>
<g>
</g>
<g>
</g>
<g>
</g>
<g>
</g>
<g>
</g>
<g>
</g>
</svg>
